<svg xmlns="http://www.w3.org/2000/svg" version="1.1" 
    xmlns:xlink="http://www.w3.org/1999/xlink" 
    xmlns:svgjs="http://svgjs.com/svgjs" height="236.60358428955078" width="249.56498870849612">
    <defs id="SvgjsDefs6018"></defs>
    <g id="SvgjsG6019" rel="mainfill" name="main_text" 
        xmlns:name="main_text" transform="translate(60.787494468688976,-97.16320419311523)" fill="#000000">
        <path d="M29.99 240.07L36.99 240.07L48.04 209.25L45.16 198.27L36.31 221.95L33.49 231.01L30.61 221.88L19.22 190.59L11.87 190.59ZM54.08 240.62L62.80 239.73L56.00 190.59L48.52 190.59ZM4.46 239.73L12.90 240.62L16.27 210.21L10.16 198.07ZM73.02 240L81.40 240L81.40 205.69L73.02 205.69ZM72.47 194.22C72.47 196.76 74.33 198.55 77.28 198.55C80.02 198.55 81.94 196.76 81.94 194.22C81.94 191.62 80.09 189.76 77.28 189.76C74.46 189.76 72.47 191.62 72.47 194.22ZM117.15 241.17L123.53 237.46L119.35 229.84L119.35 218.72C119.35 210.01 113.38 204.52 104.04 204.52C98.00 204.52 93.89 205.75 93.89 205.75L94.64 212.62C94.64 212.62 99.17 211.52 103.01 211.52C108.44 211.52 110.91 213.71 111.04 217.97L111.04 233.07ZM95.67 220.37C95.67 220.37 90.04 223.19 90.04 229.91C90.04 236.23 93.82 241.17 102.26 241.17C107.13 241.17 110.29 238.56 110.29 238.56L107.61 233.07C107.61 233.07 105.48 234.17 102.74 234.17C98.83 234.17 97.73 231.90 97.73 229.29C97.73 227.85 98.21 226.69 98.83 225.79L107.61 224.15L107.61 218.79Z" fill="#000000" style="fill: rgb(0, 0, 0);"></path>
    </g>
    <g id="SvgjsG6020" transform="translate(0,0) scale(1.85)" rel="mainfill" name="outline_container" 
        xmlns:name="outlineContainer_mainfill" fill="#B54A00">
        <g fill="#B54A00">
            <path d="M12.8 67.6l-.4.4.4.4 2.4 2.4c1.6 1.6 3.3 3.2 4.7 4.9s3.4 3.3 4.8 5c3.1 2.9 5.9 6.1 9 9l4.2 4.1 10.1 9.3 6.6 6.1c2.6 2.4 5.2 4.3 5.5 3.9s-.2-.8-1.6-2.2-4.8-5-7.3-7.4l-8.3-8.1-6.9-6.6-2.3-2.3c-2.4-2.4-4.9-4.7-7.1-7.2l-.8-.8-3.4-3.3-7.1-7.2.8-.8.5-.5 1.9 2c1.4 1.7 3.4 3.3 4.8 5 3.1 2.9 5.9 6.1 9 9l4.2 4.1 10.1 9.3 6.6 6.1c2.6 2.4 5.2 4.3 5.5 3.9s-.2-.8-1.6-2.2-4.8-5-7.3-7.4l-8.3-8.1-6.8-6.7-2.3-2.3c-2.4-2.4-4.9-4.7-7.1-7.2l-.8-.8-3.5-3.3-2.9-2.9 2.2-2.1 3-2.9 1-1L34.4 49c2.5-2.5 5-4.9 7.4-7.6s3.9-4.1 5.9-6.1l1.7-1.6 5.9-6.1 9.3-9.1 4.8-4.9h.1c2.8 2.9 5.8 5.6 8.6 8.5l.6.6 6 5.8 4.6 4.5 2.9 2.8c1.6 1.6 3.3 3.1 4.8 4.8l2.1 2c1.3 1.5 2.9 3.1 4.4 4.6l2.9 3c2.1 2.2 4.4 4.3 6.5 6.5l.8.8 2.3 2.1c1.1 1.1 2.3 2.4 3.3 3.3h.1l-4.8 4.9-1.6 2a12.2 12.2 0 0 0-1.8 1.6c-1.4 1.6-3 3-4.5 4.5l-.8.8c-1.6 1.8-3.2 3.7-4.2 5.2s-.5.7-.2.7 2.4-1.2 4.7-3.1l2.4-2.2c4.2-3.7 8-7.7 11.8-11.8l1.3-1.4 1-1-1-.9-2.3-2.2-4.9-4.7-4.6-4.4c-1-1-2.2-2.2-3-3.2a45.7 45.7 0 0 0-3.7-3.9l-3.6-3.5c-2-1.9-4.1-3.7-6.1-5.8L92 33.1c-1.8-1.6-3.5-3.3-5.3-5.1l-1.2-1.2a55.2 55.2 0 0 1-5.6-5.7l-2.7-2.9-2.7-2.8-3.4-3.4 2.1-2.1 3.2 3.1.4.4 5.3 5.1c2.8 2.9 5.8 5.6 8.6 8.5l.6.6 6 5.8 4.6 4.5 2.9 2.8c1.6 1.6 3.3 3.1 4.8 4.8l2.1 2c1.3 1.5 2.9 3.1 4.4 4.6l2.9 3c2.1 2.2 4.4 4.3 6.5 6.5l.8.8 1.6 1.4-1.9 2-2 1.7a12.2 12.2 0 0 0-1.8 1.6c-1.4 1.6-3 3-4.5 4.5l-.8.8c-1.6 1.8-3.2 3.7-4.2 5.2s-.5.7-.2.7 2.4-1.2 4.7-3.1l2.4-2.2c3.4-3 6.5-6.2 9.7-9.5l2.4 2.4h.1l-4.8 4.9-1.8 1.6a12.2 12.2 0 0 0-1.8 1.6c-1.4 1.6-3 3-4.5 4.5l-.8.8c-1.6 1.8-3.2 3.7-4.2 5.2s-.5.7-.2.7 2.4-1.2 4.7-3.1l2.4-2.2c4.2-3.7 8-7.7 11.8-11.8l1.3-1.4 1-1-1-.9-2.4-2.3-.8-.8.6-.6 1.3-1.4 1-1-1-.9-2.4-2.3-4.7-4.5-4.6-4.4c-1-1-2.2-2.2-3-3.2a45.2 45.2 0 0 0-3.7-3.9l-3.7-3.5c-2-1.9-4.1-3.7-6.1-5.8l-1.5-1.4c-1.8-1.6-3.5-3.3-5.3-5.1l-1.2-1.2a54.4 54.4 0 0 1-5.6-5.7L88.1 16l-2.7-2.8c-1.8-1.9-3.7-3.9-5.6-5.7l-6.4-6-1.1-1-.5-.5-.5.5a29.1 29.1 0 0 1-2.6 2.4l-2.5 2.9-.8.8-3-2.8-1.1-1.1-.5-.5-.5.5a29.3 29.3 0 0 1-2.6 2.4L55.1 8c-3.2 3.3-6.7 6.6-9.8 10l-.8.8c-1.7 1.7-3.4 3.5-5.2 5.1l-.6.6-4.5 4.6-1.1 1c-1.7 1.4-3.5 3.3-5.3 4.9L18 45l-2.4 2.4-4.5 4.7c-2.6 2.7-5.4 5.3-8 8L.4 62.8l-.4.4.4.4L2.8 66c1.6 1.6 3.3 3.2 4.7 4.9s3.4 3.3 4.8 5c3.1 2.9 5.9 6.1 9 9l4.1 4.1 10.1 9.3 6.6 6.1c2.6 2.4 5.2 4.3 5.5 3.9s-.2-.8-1.6-2.2-4.8-5-7.3-7.4l-8.3-8.1-6.8-6.6-2.3-2.3c-2.4-2.4-4.9-4.7-7.1-7.2l-.8-.8-3.4-3.3-7.1-7.2.8-.8.9-.8 3.3-3.3 3-2.9 1-1L22 44.2c2.5-2.5 5-4.9 7.4-7.6s3.9-4.1 5.9-6.1l1.7-1.6 6-6.1 9.3-9.1 8.5-8.5 3.1 3c-2.5 2.5-5.1 5.1-7.5 7.7l-.8.8c-1.7 1.7-3.4 3.5-5.2 5.1l-.6.6-4.5 4.6-1.1 1c-1.7 1.4-3.5 3.3-5.3 4.9L29 42.7l-2.4 2.4-4.5 4.7c-2.6 2.7-5.4 5.3-8 8l-2.7 2.7-.4.5.4.4 2.4 2.4 1.4 1.4zm59-64.7l3.2 3 .4.4 5.3 5.1c2.8 2.9 5.8 5.6 8.6 8.5l.6.6 6 5.8 4.6 4.5 2.9 2.8c1.6 1.6 3.3 3.1 4.8 4.8l2.1 2c1.3 1.5 2.9 3.1 4.4 4.6l2.9 3c2.1 2.2 4.4 4.3 6.5 6.5l.8.8 2.3 2.1c1.1 1.1 2.3 2.4 3.3 3.3h.1l-1.3 1.3-2.4-2.3-4.6-4.4c-1-1-2.2-2.2-3-3.2a45 45 0 0 0-3.7-3.9l-3.6-3.5c-2-1.9-4.1-3.7-6.1-5.8l-1.5-1.4c-1.8-1.6-3.5-3.3-5.3-5.1l-1.2-1.2a54.7 54.7 0 0 1-5.6-5.7L89.5 23l-2.7-2.8c-1.8-1.9-3.7-3.9-5.6-5.7l-6.4-5.9-1.1-1.1-.5-.5-.5.5a29.2 29.2 0 0 1-2.6 2.4l-.6.6-.8-.8-2-1.9zM14 61l.8-.8.9-.8 3.2-3.4 3-2.9 1-1 10.2-10.2c2.5-2.5 5-4.9 7.4-7.6s3.9-4.1 5.9-6.1l1.7-1.6 5.9-6.1 9.3-9.1 2-2 2.9 2.8-.6.6c-3.2 3.3-6.7 6.6-9.8 10l-.8.8c-1.7 1.7-3.4 3.5-5.2 5.1l-.6.6-4.5 4.7-1.1 1c-1.7 1.4-3.5 3.3-5.3 4.9l-9.9 9.8-2.4 2.5-4.5 4.7-6.8 6.8z" fill="#B54A00" style="fill: rgb(181, 74, 0);"></path>
            <path d="M100.7 102.9c.9-1 2-2.1 2.6-2.9l4.1-5c1.7-2.1 1.8-2.6 1.5-2.9s-2.5 2.1-3.6 3.3c-3.4 3.4-6.8 6.8-10.2 10-1.8 1.7-3.7 3.7-5.5 5.2l-1.5 1.5-1.8 1.9-5.9 5.8c-2.1 2-3.6 3.8-5.2 5.6l-1.7 2a11 11 0 0 0-.5-1.4l-.4-.6a27.4 27.4 0 0 0-3.5-3.5l-1.2-1.2-1.4-1.4 1.1-1 .9-.8 1.6 1.5 1.9 1.6c-.1.5 0 .8 1.1 0s3.5-2.7 5.5-4.6l1.8-1.6c3-3.1 6-6.1 9.1-9l.8-.8c.9-1 1.8-1.8 2.7-2.7s4.3-3.8 6.5-6.1 2-2.1 2.6-2.9l4.1-5c1.7-2.1 1.8-2.6 1.5-2.9s-2.5 2.1-3.6 3.3c-3.4 3.4-6.8 6.8-10.2 10-1.8 1.7-3.7 3.7-5.5 5.3l-1.5 1.5-2 1.9-5.9 5.8c-2.1 2-3.6 3.8-5.2 5.6l-1.7 2a11.4 11.4 0 0 0-.6-1.4l-.4-.6-1.7-1.8c2.9-3 5.8-5.9 8.8-8.7l.8-.8c.9-1 1.8-1.8 2.7-2.7s4.3-3.8 6.5-6.1 2-2.1 2.6-2.9l4.1-5c1.7-2.1 1.8-2.6 1.5-2.9s-2.5 2.1-3.6 3.3c-3.4 3.4-6.8 6.8-10.2 10-1.8 1.7-3.7 3.7-5.5 5.2l-1.5 1.5-1.8 1.9L68 115l-.4-.3-1.2-1.2-2.2-2.2c-.4-.1-1-.5-.9-.2a11.6 11.6 0 0 0 1.6 2.5l2 2.3-2 2.1c-.2-.1-.3-.1-.2.1l-1.9 2.2-1.7 2a11.5 11.5 0 0 0-.6-1.4l-.4-.6a27.3 27.3 0 0 0-3.5-3.5l-1.2-1.2-2.2-2.2c-.4-.1-1-.5-.9-.2a11.7 11.7 0 0 0 1.6 2.5A48.9 48.9 0 0 0 59 121l1.9 1.6c-.1.5 0 .8 1.1 0l3.7-3 .6.9a48.9 48.9 0 0 0 5.1 5.3l1.9 1.6c-.1.5 0 .8 1.1 0s3.5-2.7 5.5-4.6l1.8-1.6c3-3.1 6-6.1 9.1-9l.8-.8c.9-1 1.8-1.8 2.7-2.7s4.2-3.4 6.4-5.8z" fill="#B54A00" style="fill: rgb(181, 74, 0);"></path>
        </g>
    </g>
</svg>